<?xml version="1.0" standalone="no"?>
<!DOCTYPE svg PUBLIC "-//W3C//DTD SVG 20010904//EN"
 "http://www.w3.org/TR/2001/REC-SVG-20010904/DTD/svg10.dtd">
<svg version="1.0" xmlns="http://www.w3.org/2000/svg"
 width="487.000000pt" height="487.000000pt" viewBox="0 0 487.000000 487.000000"
 preserveAspectRatio="xMidYMid meet">
<metadata>
Created by potrace 1.11, written by Peter Selinger 2001-2013
</metadata>
<g transform="translate(0.000000,487.000000) scale(0.100000,-0.100000)"
fill="#000000" stroke="none">
<path d="M2070 4702 c-50 -41 -72 -313 -35 -439 27 -94 87 -198 145 -253 94
-89 127 -221 95 -375 -9 -44 -19 -95 -22 -113 -5 -32 -3 -33 19 -27 31 10 97
57 129 92 59 63 105 163 136 292 19 81 25 248 12 316 -6 28 -12 60 -15 71 -8
40 -62 165 -96 221 -71 118 -154 191 -249 216 -71 19 -94 19 -119 -1z"/>
<path d="M1889 4671 c-123 -40 -203 -137 -248 -301 -67 -240 -36 -493 85 -706
90 -159 188 -223 332 -219 68 2 95 28 117 110 42 164 -5 348 -121 472 -28 30
-76 115 -99 178 -32 85 -39 203 -18 303 8 37 16 90 19 117 4 28 8 53 10 57 7
10 -28 6 -77 -11z"/>
<path d="M3225 3806 c-64 -16 -102 -36 -169 -91 -189 -154 -296 -327 -337
-547 -18 -97 -16 -264 4 -323 31 -92 133 -185 203 -185 65 0 183 119 225 227
20 52 23 77 25 253 3 285 27 353 185 525 49 53 89 100 89 105 0 9 -42 27 -80
34 -61 13 -98 13 -145 2z"/>
<path d="M3488 3683 c-94 -89 -173 -209 -209 -318 -13 -41 -15 -133 -5 -316 5
-89 3 -114 -14 -159 -30 -83 -86 -152 -195 -243 -16 -14 -26 -29 -22 -33 4 -5
47 -8 95 -7 138 2 248 58 380 195 119 123 169 219 219 423 3 11 7 72 9 135 3
99 0 124 -19 181 -34 99 -116 189 -172 189 -9 0 -39 -21 -67 -47z"/>
<path d="M1834 3125 c-152 -33 -318 -129 -451 -259 -199 -198 -256 -407 -152
-561 22 -32 41 -45 76 -51 28 -5 139 28 192 57 105 56 141 100 235 282 36 71
71 134 78 142 114 123 161 153 333 210 61 20 113 40 118 44 9 9 -46 70 -88 98
-77 52 -210 67 -341 38z"/>
<path d="M2215 2886 c-149 -48 -286 -141 -354 -240 -27 -39 -57 -104 -95 -209
-44 -119 -192 -217 -382 -253 -34 -6 -34 -7 -18 -25 10 -11 47 -34 83 -52 63
-31 70 -32 191 -32 111 0 134 4 210 29 243 83 428 250 518 468 47 114 38 271
-20 321 -26 22 -48 21 -133 -7z"/>
<path d="M2309 1715 c-3 -2 -14 -6 -25 -8 -28 -5 -104 -46 -104 -57 0 -5 5
-12 12 -16 8 -5 9 -1 4 12 -6 15 -5 16 5 7 10 -10 3 -21 -29 -54 -23 -23 -42
-36 -42 -30 0 6 5 11 11 11 5 0 7 5 4 10 -3 6 -1 10 5 10 6 0 8 5 4 12 -4 6
-3 8 2 5 6 -3 16 -2 22 2 10 6 9 11 -4 22 -12 9 -15 10 -10 2 4 -8 2 -13 -5
-13 -6 0 -18 -8 -26 -17 -8 -11 -11 -12 -7 -3 5 8 -9 -1 -29 -20 l-37 -34 22
-23 c16 -17 24 -20 35 -12 11 10 10 29 -3 29 -3 0 -2 -5 2 -11 4 -7 -2 -7 -17
1 -36 19 -35 20 5 15 33 -4 41 0 78 38 23 23 46 42 51 42 5 0 14 7 20 15 7 8
19 16 27 16 8 1 22 5 31 8 13 6 18 0 21 -23 3 -17 1 -31 -4 -31 -4 0 -8 -6 -8
-14 0 -8 -7 -21 -15 -29 -13 -13 -12 -17 2 -29 15 -11 16 -11 9 7 -4 11 -4 16
0 12 13 -12 35 14 24 28 -8 9 -6 14 6 19 9 4 19 4 22 1 3 -3 0 -5 -7 -5 -8 0
-11 -7 -7 -15 3 -8 -1 -21 -9 -29 -17 -17 -19 -26 -5 -26 12 0 26 27 35 69 6
27 4 32 -6 26 -11 -6 -12 -5 -1 6 18 19 15 35 -10 59 -21 19 -40 25 -49 15z
m21 -15 c0 -5 -4 -10 -10 -10 -5 0 -10 5 -10 10 0 6 5 10 10 10 6 0 10 -4 10
-10z m-30 -12 c0 -4 -9 -8 -20 -8 -11 0 -20 4 -20 8 0 4 9 8 20 8 11 0 20 -4
20 -8z m56 -33 c-9 -9 -16 -13 -16 -8 0 5 5 14 12 21 9 9 9 12 0 12 -7 0 -12
5 -12 12 0 8 6 6 16 -4 16 -15 16 -18 0 -33z m-115 -3 c-7 -2 -18 1 -23 6 -8
8 -4 9 13 5 13 -4 18 -8 10 -11z m-131 -77 c-7 -9 -15 -13 -19 -10 -3 3 1 10
9 15 21 14 24 12 10 -5z"/>
<path d="M2884 1661 c3 -5 -3 -11 -14 -14 -12 -3 -20 -14 -20 -26 0 -12 -4
-21 -8 -21 -7 0 -62 -110 -62 -124 0 -3 6 -3 14 0 8 3 13 14 11 25 -2 11 0 17
6 14 5 -4 7 -11 4 -16 -4 -5 0 -9 7 -9 7 -1 -4 -10 -24 -21 -21 -11 -38 -26
-38 -34 0 -8 -4 -15 -10 -15 -5 0 -9 -6 -7 -12 1 -7 -5 -12 -13 -10 -8 2 -12
1 -8 -3 4 -4 -8 -20 -25 -36 -18 -16 -33 -34 -33 -39 -1 -6 -2 -15 -3 -20 0
-6 -6 -9 -12 -8 -6 2 -14 -3 -16 -10 -3 -7 1 -10 11 -6 18 7 54 -24 39 -34 -5
-4 -16 -18 -23 -32 -10 -19 -10 -22 0 -13 7 6 20 9 29 5 14 -5 14 -4 1 13 -8
10 -10 16 -4 12 23 -14 26 27 3 46 -12 9 -20 20 -17 22 2 3 14 -4 26 -15 12
-12 22 -18 22 -14 0 4 11 -3 25 -16 20 -19 24 -30 21 -69 -5 -79 -44 -141 -76
-121 -17 10 -21 69 -7 88 12 15 6 15 -25 -1 -21 -10 -24 -19 -23 -62 1 -61 11
-85 35 -85 20 0 34 26 23 43 -3 7 -3 9 2 5 4 -4 17 -2 29 4 20 10 20 10 -1
-11 -13 -12 -23 -25 -23 -29 0 -4 15 9 34 28 22 23 29 38 22 42 -7 5 -4 8 7 8
16 0 21 10 18 39 -2 7 2 10 8 6 18 -11 12 7 -6 21 -17 12 -17 12 2 11 15 -2
20 4 20 23 0 14 5 28 10 32 6 4 2 8 -7 8 -10 0 -18 4 -18 10 0 5 6 7 13 4 19
-7 64 30 49 40 -7 4 -12 1 -12 -6 0 -7 -11 -13 -25 -13 -17 0 -28 8 -36 28
-11 25 -39 38 -39 17 0 -5 -8 -7 -17 -4 -10 4 -5 -5 12 -20 17 -14 33 -25 38
-26 4 0 7 -4 7 -10 0 -5 -25 9 -55 32 -30 22 -55 43 -55 46 0 3 3 3 6 -1 9 -9
44 25 37 37 -3 6 -2 8 2 3 5 -4 17 0 27 10 34 30 18 5 -19 -33 -22 -21 -30
-34 -20 -30 10 3 23 6 28 6 6 0 7 6 3 13 -4 6 -4 9 1 5 7 -7 65 73 65 91 0 4
9 18 20 31 11 12 17 27 14 31 -3 5 -1 9 4 9 4 0 19 18 31 41 19 32 21 43 11
52 -10 9 -12 8 -7 -5 4 -12 2 -15 -9 -11 -11 4 -12 9 -3 19 6 8 15 11 20 8 5
-3 14 -2 20 2 8 4 7 9 -2 14 -10 7 -10 12 -1 23 10 12 9 16 -3 21 -9 3 -14 2
-11 -3z m-4 -36 c11 -13 10 -14 -4 -9 -9 3 -16 10 -16 15 0 13 6 11 20 -6z
m-14 -72 c-6 -6 -36 9 -36 18 0 5 9 4 20 -3 10 -7 18 -14 16 -15z m-19 -21
c-10 -2 -14 -8 -10 -15 4 -7 0 -6 -10 2 -22 17 -13 31 16 23 18 -5 19 -7 4
-10z m-59 -107 c-6 -14 -16 -25 -21 -25 -5 0 -4 7 3 15 7 8 9 15 4 15 -5 0 -2
5 6 10 21 13 21 13 8 -15z m-23 -125 c3 -5 1 -10 -4 -10 -6 0 -11 5 -11 10 0
6 2 10 4 10 3 0 8 -4 11 -10z m32 -115 c0 -8 -4 -12 -9 -9 -4 3 -8 9 -8 15 0
5 4 9 8 9 5 0 9 -7 9 -15z m-137 -66 c-11 -8 -12 -12 -2 -16 6 -2 12 -10 12
-16 0 -6 -7 -4 -16 5 -17 17 -12 38 9 38 7 0 6 -4 -3 -11z m0 -54 c7 -9 8 -15
2 -15 -5 0 -12 7 -16 15 -3 8 -4 15 -2 15 2 0 9 -7 16 -15z m20 -35 c0 -16
-17 -20 -28 -7 -8 10 -6 13 9 14 10 1 19 -2 19 -7z"/>
<path d="M2270 1525 c-5 -14 -14 -25 -20 -25 -6 0 -9 -4 -6 -9 3 -5 -4 -11
-15 -14 -12 -3 -18 -10 -14 -17 4 -6 -1 -17 -10 -24 -17 -12 -16 -14 5 -29 26
-18 21 -22 98 71 28 34 33 45 23 55 -10 9 -12 8 -9 -8 2 -14 -3 -20 -15 -20
-10 0 -25 -9 -33 -19 -8 -11 -14 -15 -14 -9 0 6 6 16 14 23 8 6 12 19 10 28
-5 15 -4 15 6 0 16 -25 33 -23 20 2 -14 27 -29 25 -40 -5z m21 -58 c-10 -9
-11 -8 -5 6 3 10 9 15 12 12 3 -3 0 -11 -7 -18z m-41 -7 c0 -5 -4 -10 -10 -10
-5 0 -10 5 -10 10 0 6 5 10 10 10 6 0 10 -4 10 -10z m6 -29 c-10 -11 -25 -17
-33 -14 -12 5 -12 7 -2 14 7 4 17 5 21 3 5 -3 11 2 14 11 4 9 9 13 12 10 3 -2
-3 -14 -12 -24z"/>
<path d="M2032 1517 c-12 -13 -19 -27 -15 -30 3 -4 -1 -7 -11 -7 -9 0 -14 -5
-11 -10 4 -7 13 -7 26 0 10 6 25 10 32 9 37 -5 52 22 25 49 -17 17 -21 15 -46
-11z m38 -12 c0 -8 -4 -15 -8 -15 -5 0 -9 7 -9 15 0 8 4 15 9 15 4 0 8 -7 8
-15z"/>
<path d="M2575 1492 c-4 -4 -11 -8 -16 -8 -5 -1 -13 -2 -19 -3 -5 0 -10 -8
-10 -16 0 -9 -7 -18 -15 -21 -8 -4 -13 -10 -10 -15 3 -4 -4 -13 -15 -19 -11
-6 -20 -14 -20 -19 0 -14 128 53 133 69 5 18 -17 43 -28 32z m12 -27 c0 -8 -3
-12 -7 -10 -4 2 -17 -5 -28 -16 -12 -11 -22 -16 -22 -12 0 5 45 48 56 53 0 0
1 -7 1 -15z"/>
<path d="M2166 1454 c-20 -20 -33 -40 -30 -45 3 -5 0 -9 -6 -9 -18 0 -33 -52
-18 -66 11 -11 19 -10 46 3 35 17 40 34 17 53 -17 14 -20 1 -5 -18 5 -7 2 -5
-7 3 -12 11 -14 18 -6 26 8 8 17 4 32 -12 11 -12 24 -19 28 -15 11 11 -46 58
-59 50 -7 -4 -8 -2 -4 4 4 6 13 9 20 6 15 -6 29 11 31 38 1 10 1 18 -1 18 -1
0 -18 -16 -38 -36z m-6 -106 c0 -4 -5 -8 -11 -8 -5 0 -7 5 -4 10 3 6 1 10 -4
10 -6 0 -11 -4 -11 -10 0 -5 -5 -10 -11 -10 -8 0 -8 4 1 15 6 8 8 20 4 27 -4
7 2 4 14 -6 12 -11 22 -23 22 -28z"/>
<path d="M3030 1470 c0 -9 5 -21 10 -26 7 -7 6 -21 -4 -45 -9 -19 -15 -29 -16
-24 0 6 -3 6 -8 0 -4 -6 -21 -21 -38 -33 -31 -21 -54 -16 -54 13 0 5 4 4 9 -3
7 -11 9 -11 14 1 8 22 -21 29 -32 8 -6 -10 -7 -21 -4 -25 3 -3 1 -6 -5 -6 -16
0 -15 11 3 37 9 13 22 19 33 16 13 -3 28 6 47 29 15 18 30 32 31 31 2 -2 4 -1
4 2 0 3 0 10 0 15 0 6 -5 10 -11 10 -5 0 -7 -5 -4 -11 4 -6 1 -9 -7 -7 -22 5
-92 -61 -116 -108 -16 -31 -19 -48 -12 -70 4 -16 9 -25 9 -19 1 5 8 -1 17 -13
14 -21 52 -33 40 -13 -4 5 0 12 6 15 10 5 10 7 1 12 -7 3 -13 17 -13 30 0 15
-6 24 -16 24 -8 0 -12 -4 -9 -10 3 -5 2 -10 -3 -10 -6 0 -12 6 -15 14 -4 10 2
13 26 11 38 -3 147 52 147 74 0 8 3 11 7 7 4 -4 14 8 23 26 17 36 8 58 -24 58
-9 0 -16 -6 -16 -12 0 -9 -4 -8 -10 2 -9 13 -10 13 -10 0z m51 -24 c-6 -7 -8
-15 -5 -18 2 -3 -1 -8 -9 -11 -8 -3 -13 1 -12 12 2 24 15 42 26 35 6 -4 6 -10
0 -18z m-91 -16 c0 -5 -4 -10 -10 -10 -5 0 -10 5 -10 10 0 6 5 10 10 10 6 0
10 -4 10 -10z m-75 -160 c-3 -5 -1 -10 5 -10 6 0 8 -5 4 -11 -4 -8 -9 -7 -15
2 -12 19 -11 29 2 29 5 0 7 -4 4 -10z"/>
<path d="M2021 1461 c-8 -5 -20 -7 -28 -4 -7 3 -16 -3 -19 -13 -4 -11 -15 -28
-24 -39 -45 -54 -89 -234 -53 -221 17 7 43 -3 43 -16 0 -6 -7 -5 -15 2 -22 19
-44 -3 -25 -25 7 -8 9 -15 5 -15 -4 0 5 -10 20 -22 29 -22 92 -34 132 -23 13
3 21 10 18 14 -3 5 4 7 15 4 29 -8 96 39 96 66 0 11 -4 21 -8 21 -8 0 -12 -16
-9 -34 1 -5 -4 -4 -12 2 -14 12 -37 -2 -37 -23 0 -5 7 -1 15 9 8 11 15 15 15
9 0 -7 -7 -19 -16 -27 -17 -17 -25 -20 -23 -8 4 23 -4 31 -30 29 -24 -2 -29
-6 -28 -26 1 -13 -4 -25 -11 -27 -7 -1 -8 0 -2 3 5 2 10 11 10 19 0 9 -5 12
-12 8 -8 -5 -9 -2 -5 10 4 9 3 15 -1 12 -4 -2 -14 1 -22 8 -28 22 -40 55 -35
101 3 31 1 45 -8 46 -7 0 -3 4 8 8 19 8 19 8 -2 15 -13 4 -23 14 -23 22 0 8 2
14 4 14 2 0 13 3 23 6 17 6 17 6 -1 -8 -15 -12 -16 -17 -6 -23 8 -5 18 -1 27
11 12 16 11 21 -4 32 -16 13 -16 13 7 7 14 -4 22 -4 19 -1 -4 4 6 21 22 38 36
40 22 66 -20 39z m16 -22 c-9 -6 -14 -16 -11 -22 4 -7 4 -9 -1 -5 -4 4 -16 3
-26 -3 -13 -6 -19 -6 -19 1 0 5 5 10 10 10 6 0 20 9 32 20 12 11 24 17 27 14
3 -3 -2 -10 -12 -15z m-70 -51 c-3 -8 -6 -5 -6 6 -1 11 2 17 5 13 3 -3 4 -12
1 -19z m-20 -74 c2 -6 -9 -16 -24 -23 l-28 -12 25 22 c18 15 20 19 7 15 -11
-4 -16 -2 -12 5 8 12 27 7 32 -7z m-3 -49 c-26 -26 -39 -31 -39 -15 0 6 4 10
8 10 4 -1 15 6 23 15 9 8 19 15 24 15 5 0 -2 -11 -16 -25z m20 -21 c3 -8 2
-12 -4 -9 -6 3 -10 2 -10 -3 0 -5 -11 -14 -25 -20 -15 -7 -25 -8 -25 -2 0 6 7
10 15 10 8 0 20 9 27 20 15 24 14 24 22 4z m-4 -49 c0 -3 6 -13 15 -21 11 -12
13 -20 5 -29 -6 -7 -8 -20 -4 -29 3 -9 2 -16 -3 -16 -10 0 -11 4 -17 54 -1 17
-8 32 -15 34 -11 4 -11 6 0 13 14 8 22 6 19 -6z m-26 -54 c-2 -3 -12 3 -22 13
-16 17 -16 18 5 5 12 -7 20 -15 17 -18z m80 -17 c7 -19 0 -34 -17 -34 -7 0 -6
4 3 11 11 8 12 12 3 16 -15 5 -17 23 -4 23 5 0 12 -7 15 -16z m86 6 c0 -5 -8
-10 -17 -10 -15 0 -16 2 -3 10 19 12 20 12 20 0z m-150 -15 c0 -8 -2 -15 -4
-15 -2 0 -6 7 -10 15 -3 8 -1 15 4 15 6 0 10 -7 10 -15z"/>
<path d="M1960 1154 c0 -8 5 -12 10 -9 6 4 8 11 5 16 -9 14 -15 11 -15 -7z"/>
<path d="M2490 1458 c0 -5 -4 -7 -8 -4 -4 2 -25 -10 -46 -28 -35 -29 -38 -34
-27 -54 7 -13 17 -20 22 -16 6 4 3 14 -8 27 l-18 20 30 -19 c25 -16 28 -17 23
-3 -4 11 2 21 17 29 14 7 22 17 19 22 -3 4 2 11 10 14 20 8 21 21 1 21 -8 0
-15 -4 -15 -9z m-16 -21 c-5 -13 -44 -41 -44 -31 0 5 41 43 47 44 1 0 0 -6 -3
-13z"/>
<path d="M2562 1415 c-7 -8 -10 -15 -7 -15 6 0 -24 -37 -47 -59 -19 -17 -25
-36 -7 -26 5 4 21 8 35 10 14 1 26 4 28 6 1 2 12 20 24 40 16 27 19 38 10 47
-15 15 -20 15 -36 -3z m25 -14 c0 -11 -5 -18 -9 -15 -4 3 -5 11 -1 19 7 21 12
19 10 -4z m-20 -36 c0 -8 -4 -12 -9 -9 -4 3 -8 0 -8 -5 0 -6 -5 -11 -10 -11
-6 0 -5 8 2 20 15 24 25 26 25 5z"/>
<path d="M2368 1373 c-8 -10 -19 -28 -23 -41 -4 -13 -21 -37 -37 -53 -23 -21
-27 -29 -14 -29 9 0 16 5 16 10 0 6 8 14 18 17 26 10 72 50 65 57 -4 3 -1 6 5
6 16 0 15 12 -1 34 -12 16 -13 16 -29 -1z m27 -13 c4 -6 -1 -7 -11 -3 -11 4
-15 2 -11 -4 4 -6 -2 -22 -14 -34 l-20 -24 17 28 c9 15 13 27 10 27 -4 0 -4 5
-1 10 8 13 22 13 30 0z"/>
<path d="M2510 1310 c-7 -5 -19 -6 -27 -3 -7 3 -13 0 -13 -6 0 -6 -11 -17 -25
-23 -14 -6 -25 -15 -25 -20 0 -5 4 -7 9 -3 5 3 13 0 17 -6 4 -8 3 -9 -4 -5 -7
4 -12 2 -12 -5 0 -7 -7 -4 -16 7 -8 10 -13 14 -10 9 6 -15 -32 -17 -40 -3 -5
7 -1 9 9 5 10 -3 17 -2 17 3 0 6 -5 10 -11 10 -8 0 -8 5 1 15 17 20 1 19 -21
-1 -15 -13 -16 -20 -6 -41 8 -19 16 -23 34 -18 13 3 23 1 23 -5 0 -6 -4 -8
-10 -5 -5 3 -10 1 -10 -4 0 -16 7 -14 40 10 18 14 26 27 22 37 -3 10 -1 13 6
8 7 -4 12 -2 12 4 0 6 5 8 12 4 6 -4 8 -3 5 3 -8 12 20 26 34 17 13 -8 11 -24
-3 -21 -8 1 -13 -12 -14 -39 -1 -39 0 -41 27 -39 26 2 42 11 85 51 8 7 9 16 3
25 -5 9 -9 10 -9 2 0 -19 -43 -6 -66 21 -14 15 -26 21 -34 16z m63 -54 c8 5 7
2 -1 -7 -11 -12 -14 -12 -22 1 -5 8 -10 20 -10 25 1 6 5 2 11 -8 6 -9 16 -14
22 -11z m-42 -3 c0 -5 2 -19 5 -33 3 -18 2 -21 -5 -10 -5 8 -7 18 -5 22 3 4 0
8 -5 8 -6 0 -11 5 -11 10 0 11 20 14 21 3z m54 -23 c-20 -22 -35 -26 -35 -9 0
5 4 7 10 4 5 -3 15 3 22 14 7 11 14 18 17 16 2 -3 -4 -14 -14 -25z"/>
<path d="M2545 1310 c-3 -5 -1 -10 4 -10 6 0 11 5 11 10 0 6 -2 10 -4 10 -3 0
-8 -4 -11 -10z"/>
<path d="M3081 1291 c-11 -11 -23 -16 -27 -13 -4 4 -4 1 0 -5 5 -9 0 -13 -13
-13 -12 0 -21 -5 -21 -11 0 -5 -4 -7 -10 -4 -5 3 -10 -1 -10 -10 0 -10 5 -13
13 -9 6 4 8 3 4 -1 -4 -5 -13 -10 -20 -11 -7 -1 -19 -4 -27 -6 -8 -3 -12 -3
-7 -1 4 3 5 9 2 14 -4 5 1 6 9 3 9 -3 16 -2 16 4 0 20 -30 21 -40 2 -13 -24
-28 -25 -52 -3 -10 9 -18 11 -18 5 0 -17 40 -41 58 -35 10 4 13 2 8 -5 -5 -9
0 -9 21 -2 55 20 72 32 66 48 -4 10 -2 13 6 8 10 -6 71 46 71 60 0 9 -11 3
-29 -15z"/>
<path d="M2717 1246 c-3 -8 2 -16 14 -19 23 -6 24 -1 5 18 -12 12 -15 12 -19
1z"/>
<path d="M2223 1209 c-32 -29 -42 -49 -24 -49 5 0 12 7 15 16 4 9 9 14 13 11
10 -11 32 13 26 29 -3 10 0 12 10 8 8 -3 18 -1 22 5 14 24 -32 9 -62 -20z"/>
<path d="M2656 1179 c-26 -26 -15 -34 14 -11 13 10 19 21 14 24 -5 3 -18 -3
-28 -13z"/>
<path d="M2120 712 c-77 -22 -149 -94 -175 -177 -56 -179 12 -365 148 -411 73
-25 161 -22 216 6 42 21 45 21 57 5 7 -10 25 -19 39 -20 l25 -3 0 164 0 164
-124 0 -124 0 2 -30 c1 -28 3 -30 43 -30 l43 0 0 -90 c0 -100 -15 -130 -65
-130 -27 0 -74 39 -76 62 0 7 -3 22 -5 33 -7 30 -8 255 -1 296 15 84 45 119
105 119 24 0 42 -9 63 -29 28 -29 31 -36 31 -94 1 -22 4 -27 17 -22 9 4 28 11
43 17 23 8 25 12 18 39 -34 117 -145 169 -280 131z"/>
<path d="M2690 718 c-73 -13 -130 -55 -165 -122 -26 -52 -30 -69 -32 -160 -4
-221 81 -328 262 -329 183 -1 267 95 267 308 1 156 -41 243 -137 286 -48 21
-132 29 -195 17z m102 -47 c12 -1 38 -58 43 -93 7 -47 6 -287 -1 -328 -6 -38
-30 -90 -42 -91 -4 0 -17 -2 -29 -5 -36 -6 -71 33 -81 93 -9 52 -8 310 1 350
13 54 45 85 82 78 11 -2 23 -4 27 -4z"/>
<path d="M3281 714 c-129 -34 -204 -145 -204 -304 0 -147 40 -232 130 -277 90
-43 218 -36 291 17 50 36 70 72 75 134 4 43 3 48 -20 57 -44 16 -50 12 -50
-40 -1 -88 -46 -143 -117 -145 -90 -2 -128 77 -127 263 1 115 23 198 61 234
35 31 47 33 95 13 40 -17 53 -39 59 -101 3 -26 7 -50 10 -52 3 -3 19 0 36 7
37 15 40 53 10 115 -36 75 -139 108 -249 79z"/>
<path d="M1409 706 c-1 -16 -1 -491 0 -548 1 -45 2 -47 29 -44 l27 3 0 182 c0
99 2 181 5 181 3 0 59 -81 124 -180 65 -99 122 -181 125 -181 3 -1 34 -2 69
-3 l62 -2 0 301 0 302 -27 -2 -28 -1 -2 -193 c-1 -106 -4 -195 -6 -197 -2 -3
-62 82 -133 188 -70 106 -130 195 -131 197 -7 10 -113 7 -114 -3z"/>
</g>
</svg>
